<svg xmlns="http://www.w3.org/2000/svg" viewBox="0 0 62 62"><defs><style>.cls-1{fill:#f6f9fa;}</style></defs><title>web1.6_hackathon</title><g id="_2challenges_page" data-name="2challenges page"><path class="cls-1" d="M11.89,42.5V34.61c0-1.86-.94-2.48-2.92-2.48H8.1V28.92H9c2,0,2.92-.62,2.92-2.48V19.5c0-4.56,1.95-6.72,6.17-6.72H19V15.6h-.94C16,15.6,15,17,15,19.5v7.05c0,2.37-1.23,3.61-2.85,4A3.65,3.65,0,0,1,15,34.47v8c0,2.48,1,3.9,3.1,3.9H19v2.82h-.94C13.84,49.22,11.89,47.06,11.89,42.5Z"/><path class="cls-1" d="M21.6,32.79c0-5.33,3.35-9.57,8.94-9.57s8.55,4.06,8.55,9.17c0,.44,0,1-.07,1.46H24.81a5.62,5.62,0,0,0,5.88,5.55A5.74,5.74,0,0,0,36,36.11l2.64,1.32a8.57,8.57,0,0,1-8.05,4.92C24.84,42.35,21.6,38.19,21.6,32.79Zm14.32-1.61a5.09,5.09,0,0,0-5.34-5,5.48,5.48,0,0,0-5.74,5Z"/><path class="cls-1" d="M43,46.4h.94c2.13,0,3.1-1.42,3.1-3.9V34.58c0-2.41,1.23-3.69,2.85-4C48.27,30.16,47,29,47,26.55v-7c0-2.48-1-3.9-3.1-3.9H43V12.78h.94c4.22,0,6.17,2.16,6.17,6.65v7c0,1.86,1,2.48,3,2.48h.83v3.21h-.83c-2,0-3,.62-3,2.48V42.5c0,4.56-2,6.72-6.17,6.72H43Z"/></g></svg>